<?xml version="1.0" encoding="UTF-8"?>
<svg width="503px" height="377px" viewBox="0 0 503 377" version="1.1" xmlns="http://www.w3.org/2000/svg" xmlns:xlink="http://www.w3.org/1999/xlink">
    <!-- Generator: Sketch 61.2 (89653) - https://sketch.com -->
    <title>Group 5</title>
    <desc>Created with Sketch.</desc>
    <defs>
        <linearGradient x1="30.7446289%" y1="0%" x2="80.3820801%" y2="100%" id="linearGradient-1">
            <stop stop-color="#FF5A5F" offset="0%"></stop>
            <stop stop-color="#E5284C" offset="100%"></stop>
        </linearGradient>
        <linearGradient x1="37.7425409%" y1="0%" x2="69.3404272%" y2="100%" id="linearGradient-2">
            <stop stop-color="#FF5A5F" offset="0%"></stop>
            <stop stop-color="#E5284C" offset="100%"></stop>
        </linearGradient>
    </defs>
    <g id="cadh" stroke="none" stroke-width="1" fill="none" fill-rule="evenodd">
        <g id="logo-2-b" transform="translate(-261.000000, -324.000000)">
            <g id="Group-5" transform="translate(261.000000, 324.000000)">
                <g id="Group-4" transform="translate(0.000000, 247.000000)" fill="#FFFFFF" fill-rule="nonzero">
                    <g id="Group-3">
                        <path d="M58.6067615,130 C90.863923,130 113.837773,111.560284 113.837773,83.070922 L113.837773,77.4468085 L76.6107586,77.4468085 C76.6107586,89.4326241 70.6094262,98.6524823 58.9818447,98.6524823 C47.1667216,98.6524823 40.3214519,88.9716312 40.3214519,70.9007092 L40.3214519,59.1914894 C40.3214519,41.0283688 47.1667216,31.3475177 58.9818447,31.3475177 C70.6094262,31.3475177 76.6107586,40.4751773 76.6107586,52.4609929 L113.837773,52.4609929 L113.837773,47.0212766 C113.837773,18.3475177 90.863923,0 58.6067615,0 C20.7233509,0 0,23.2340426 0,59.2836879 L0,70.6241135 C0,106.58156 20.7233509,130 58.6067615,130 Z M157.910058,127.879433 L163.630078,104.092199 L198.606593,104.092199 L204.139072,127.879433 L246.148398,127.879433 L207.702363,2.02836879 L157.816287,2.02836879 L118.995168,127.879433 L157.910058,127.879433 Z M192.323948,76.893617 L170.100264,76.893617 L180.415054,34.0212766 L182.384242,34.0212766 L192.323948,76.893617 Z M312.538138,127.879433 C353.422214,127.879433 371.332441,102.248227 371.332441,64.1702128 C371.332441,26.7375887 354.07861,2.02836879 312.538138,2.02836879 L256.932042,2.02836879 L256.932042,127.879433 L312.538138,127.879433 Z M305.772293,98.0980933 L296.315786,98.0992908 L296.315786,31.8085106 L305.317785,31.8085106 C327.541468,31.8085106 331.010989,48.8652482 331.010989,65.2765957 C331.010989,94.8927099 318.644613,98.029157 305.772293,98.0980933 L305.772293,98.0980933 Z M426.28214,127.879433 L426.28214,80.212766 L463.321613,80.212766 L463.321613,127.879433 L502.705357,127.879433 L502.705357,2.02836879 L463.321613,2.02836879 L463.321613,49.5106383 L426.28214,49.5106383 L426.28214,2.02836879 L386.898396,2.02836879 L386.898396,127.879433 L426.28214,127.879433 Z" id="CADH"></path>
                    </g>
                </g>
                <g id="Group-6" transform="translate(161.000000, 0.000000)">
                    <circle id="Oval" fill="url(#linearGradient-1)" cx="90" cy="90" r="90"></circle>
                    <path d="M90,6.92307692 C135.882118,6.92307692 173.076923,44.1178823 173.076923,90 C173.076923,135.882118 135.882118,173.076923 90,173.076923 C44.1178823,173.076923 6.92307692,135.882118 6.92307692,90 C6.92307692,44.1178823 44.1178823,6.92307692 90,6.92307692 Z M90,11.5384615 C46.6668889,11.5384615 11.5384615,46.6668889 11.5384615,90 C11.5384615,133.333111 46.6668889,168.461538 90,168.461538 C133.333111,168.461538 168.461538,133.333111 168.461538,90 C168.461538,46.6668889 133.333111,11.5384615 90,11.5384615 Z" id="Combined-Shape" fill="#FFFFFF"></path>
                    <path d="M157.885301,63.9891206 C157.258761,60.7363727 154.782334,58.1940389 151.614589,57.5512313 C150.902032,57.4062043 135.557104,54.384082 118.006541,57.8282001 C107.968622,42.6505273 95.0369357,33.6457696 94.4337579,33.2303164 C91.7507848,31.3847663 88.2490616,31.3847663 85.5660885,33.2303164 C84.9623798,33.6457696 72.0312247,42.6505273 61.9927745,57.8282001 C44.4427429,54.384082 29.0972838,57.4067496 28.3852579,57.5512313 C25.2175125,58.1940389 22.7410853,60.7363727 22.115076,63.9891206 C21.7773814,65.7408938 14.1442088,107.196255 39.3146697,133.041044 C51.0145137,145.055929 67.9549959,147.880684 82.0356931,142.207185 L82.0356931,149.06707 C82.0356931,153.583624 85.6016633,157.245283 90.0001887,157.245283 C94.3987141,157.245283 97.9646843,153.583624 97.9646843,149.06707 L97.9646843,142.207185 C112.019364,147.870325 128.95613,145.085371 140.685708,133.041044 C165.855638,107.196255 158.222465,65.7408938 157.885301,63.9891206 Z" id="Shape" fill="#FFFFFF" fill-rule="nonzero"></path>
                    <path d="M88.9846154,51.2307692 L88.9842165,57.7631014 C89.3368593,57.7539147 89.6908384,57.7493214 90.0461538,57.7493214 C90.3710388,57.7493214 90.6942287,57.752432 91.0157235,57.7586532 L91.0153846,51.2307692 L99.3230769,51.2307692 L99.3240654,58.6910525 C102.214219,59.3121217 104.936966,60.2403861 107.492308,61.4758456 C112.630769,63.9601951 116.923077,67.5947065 120.369231,72.3793796 L120.369231,72.3793796 L114.276923,77.0720398 C107.876923,69.3429524 99.9692308,65.4784087 90.5538462,65.4784087 C82.8615385,65.4784087 76.2307692,68.1774551 70.6615385,73.5755479 C65.0923077,78.9736406 62.3076923,85.5832372 62.3076923,93.4043375 C62.3076923,101.225438 65.0307692,107.758357 70.4769231,113.003095 C75.9230769,118.247833 82.9846154,120.870202 91.6615385,120.870202 C100.338462,120.870202 107.876923,117.159013 114.276923,109.736635 L114.276923,109.736635 L120.461538,114.429295 C114.966332,121.485264 107.920488,125.871413 99.3240076,127.587741 L99.3230769,134.530982 L91.0153846,134.530982 L91.015,128.412769 L90.5538462,128.415263 C90.0257491,128.415263 89.5023673,128.407057 88.9837005,128.390644 L88.9846154,134.530982 L80.6769231,134.530982 L80.6758787,127.334028 C74.3209087,125.84944 68.8443337,122.836044 64.2461538,118.293839 C57.4153846,111.546223 54,103.01969 54,92.7142404 C54,86.3346762 55.5846154,80.4458478 58.7538462,75.047755 C61.9230769,69.6496622 66.3076923,65.4170668 71.9076923,62.3499686 C74.7181654,60.8106835 77.6410128,59.657659 80.6762347,58.8908952 L80.6769231,51.2307692 L88.9846154,51.2307692 Z" id="Combined-Shape" fill="url(#linearGradient-2)"></path>
                </g>
            </g>
        </g>
    </g>
</svg>