<?xml version="1.0" encoding="iso-8859-1"?>
<!-- Generator: Adobe Illustrator 19.0.0, SVG Export Plug-In . SVG Version: 6.00 Build 0)  -->
<svg version="1.1" id="Capa_1" xmlns="http://www.w3.org/2000/svg" xmlns:xlink="http://www.w3.org/1999/xlink" x="0px" y="0px"
	 viewBox="0 0 512 512" style="enable-background:new 0 0 512 512;" xml:space="preserve">
<path style="fill:#A8AFF1;" d="M437.1,452h-60c-8.291,0-15-6.709-15-15V225c0-8.291,6.709-15,15-15h60c8.291,0,15,6.709,15,15v212
	C452.1,445.291,445.391,452,437.1,452z"/>
<g>
	<path style="fill:#C5C9F7;" d="M135.1,452h-60c-8.291,0-15-6.709-15-15V225c0-8.291,6.709-15,15-15h60c8.291,0,15,6.709,15,15v212
		C150.1,445.291,143.391,452,135.1,452z"/>
	<path style="fill:#C5C9F7;" d="M287.1,210h-60c-8.401,0-15,6.599-15,15v212c0,8.399,6.599,15,15,15h60c8.401,0,15-6.601,15-15V225
		C302.1,216.599,295.501,210,287.1,210z"/>
</g>
<path style="fill:#A8AFF1;" d="M302.1,225v212c0,8.399-6.599,15-15,15h-30V210h30C295.501,210,302.1,216.599,302.1,225z"/>
<path style="fill:#E1E4FB;" d="M467.1,422h-422c-24.901,0-45,20.099-45,45v30c0,8.399,6.599,15,15,15h481.8c8.401,0,15-6.601,15-15
	v-30C511.9,442.099,492.001,422,467.1,422z"/>
<path style="fill:#C5C9F7;" d="M511.9,467v30c0,8.399-6.599,15-15,15H257.1v-90h210C492.001,422,511.9,442.099,511.9,467z"/>
<path style="fill:#E1E4FB;" d="M467.1,150h-422c-8.401,0-15,6.599-15,15v30c0,24.899,20.099,45,45,45h362c24.901,0,45-20.101,45-45
	v-30C482.1,156.599,475.501,150,467.1,150z"/>
<g>
	<path style="fill:#C5C9F7;" d="M437.1,240h-180v-90h210c8.401,0,15,6.599,15,15v30C482.1,219.899,462.001,240,437.1,240z"/>
	<path style="fill:#C5C9F7;" d="M505.001,152.399l-239.8-150C262.5,0.599,259.801,0,257.1,0s-5.4,0.599-8.101,2.399l-242,150
		C-5.6,160.199,0.1,180,15.1,180h481.8C511.9,180,517.6,160.199,505.001,152.399z"/>
</g>
<path style="fill:#A8AFF1;" d="M496.9,180H257.1V0c2.701,0,5.4,0.599,8.101,2.399l239.8,150C517.6,160.199,511.9,180,496.9,180z"/>
<g>
</g>
<g>
</g>
<g>
</g>
<g>
</g>
<g>
</g>
<g>
</g>
<g>
</g>
<g>
</g>
<g>
</g>
<g>
</g>
<g>
</g>
<g>
</g>
<g>
</g>
<g>
</g>
<g>
</g>
</svg>
