<?xml version="1.0" encoding="iso-8859-1"?>
<!-- Generator: Adobe Illustrator 19.0.0, SVG Export Plug-In . SVG Version: 6.00 Build 0)  -->
<svg version="1.1" id="Capa_1" xmlns="http://www.w3.org/2000/svg" xmlns:xlink="http://www.w3.org/1999/xlink" x="0px" y="0px"
	 viewBox="0 0 512 512" style="enable-background:new 0 0 512 512;" xml:space="preserve">
<path style="fill:#6F7D96;" d="M135,512H75c-8.291,0-15-6.709-15-15v-60c0-8.291,6.709-15,15-15h90
	c11.106,0,18.418,11.741,13.418,21.709l-30,60C145.869,508.792,140.684,512,135,512z"/>
<path style="fill:#66728B;" d="M437,512h-60c-5.684,0-10.869-3.208-13.418-8.291l-30-60c-5-9.968,2.312-21.709,13.418-21.709h90
	c8.291,0,15,6.709,15,15v60C452,505.291,445.291,512,437,512z"/>
<path style="fill:#E1E4FB;" d="M467,0H45C20.099,0,0,20.099,0,45v47.999l30,44.399L0,178.2v92.999l30,44.399L0,358.2V407
	c0,24.899,20.099,45,45,45h422c24.901,0,45-20.101,45-45V45C512,20.099,491.901,0,467,0z"/>
<g>
	<path style="fill:#6F7D96;" d="M90,165c0,8.291-6.709,15-15,15H0V90h75c8.291,0,15,6.709,15,15V165z"/>
	<path style="fill:#6F7D96;" d="M90,345c0,8.291-6.709,15-15,15H0v-90h75c8.291,0,15,6.709,15,15V345z"/>
</g>
<path style="fill:#17ACE8;" d="M437,60H75c-8.401,0-15,6.599-15,15v300c0,8.399,6.599,15,15,15h362c8.401,0,15-6.601,15-15V75
	C452,66.599,445.401,60,437,60z"/>
<path style="fill:#C5C9F7;" d="M512,45v362c0,24.899-20.099,45-45,45H227V0h240C491.901,0,512,20.099,512,45z"/>
<path style="fill:#1689FC;" d="M452,75v300c0,8.399-6.599,15-15,15H227V60h210C445.401,60,452,66.599,452,75z"/>
<path style="fill:#E1E4FB;" d="M227,120c-57.9,0-105,47.1-105,105s47.1,105,105,105s105-47.1,105-105S284.9,120,227,120z"/>
<path style="fill:#C5C9F7;" d="M332,225c0,57.9-47.1,105-105,105V120C284.9,120,332,167.1,332,225z"/>
<path style="fill:#6F7D96;" d="M227,180c-24.901,0-45,20.099-45,45c0,24.899,20.099,45,45,45s45-20.101,45-45
	C272,200.099,251.901,180,227,180z"/>
<path style="fill:#C5C9F7;" d="M362,285V165c0-19.773,30-19.854,30,0v120C392,304.773,362,304.854,362,285z"/>
<path style="fill:#66728B;" d="M272,225c0,24.899-20.099,45-45,45v-90C251.901,180,272,200.099,272,225z"/>
<g>
</g>
<g>
</g>
<g>
</g>
<g>
</g>
<g>
</g>
<g>
</g>
<g>
</g>
<g>
</g>
<g>
</g>
<g>
</g>
<g>
</g>
<g>
</g>
<g>
</g>
<g>
</g>
<g>
</g>
</svg>
