<?xml version="1.0" encoding="iso-8859-1"?>
<!-- Generator: Adobe Illustrator 19.0.0, SVG Export Plug-In . SVG Version: 6.00 Build 0)  -->
<svg version="1.1" id="Capa_1" xmlns="http://www.w3.org/2000/svg" xmlns:xlink="http://www.w3.org/1999/xlink" x="0px" y="0px"
	 viewBox="0 0 512 512" style="enable-background:new 0 0 512 512;" xml:space="preserve">
<g>
	<path style="fill:#17ACE8;" d="M272,75v62c0,9.899-7.5,15-15,15s-15-5.101-15-15V75c0-9.901,7.5-15,15-15S272,65.099,272,75z"/>
	<path style="fill:#17ACE8;" d="M272,373.1v60c0,8.399-6.599,15-15,15s-15-6.601-15-15v-60c0-8.401,6.599-15,15-15
		S272,364.699,272,373.1z"/>
</g>
<g>
	<path style="fill:#1689FC;" d="M429.639,148.865L279.354,60.981c-17.224-9.947-2.129-35.935,15-25.986l150.286,87.884
		C461.757,132.766,446.827,158.794,429.639,148.865z"/>
	<path style="fill:#1689FC;" d="M453,345.755v-177.51c0-19.773,30-19.854,30,0v177.51C483,365.528,453,365.609,453,345.755z"/>
	<path style="fill:#1689FC;" d="M279.148,458.636l151.868-86.792c17.016-9.903,32.259,16.018,15,25.986l-151.868,86.792
		C276.961,494.55,262.03,468.522,279.148,458.636z"/>
	<path style="fill:#1689FC;" d="M433.257,374.114l-78.699-44.092c-7.192-4.102-9.697-13.271-5.581-20.464
		c4.102-7.192,13.257-9.727,20.464-5.581l78.699,44.092C465.371,357.896,450.453,384.002,433.257,374.114z"/>
	<path style="fill:#1689FC;" d="M359.495,209.539c-5.215,0-10.269-2.71-13.037-7.559c-4.116-7.192-1.611-16.348,5.581-20.464
		l79.753-44.707c16.986-9.865,32.212,16.127,14.883,26.045l-79.753,44.707C364.578,208.909,362.015,209.539,359.495,209.539z"/>
	<path style="fill:#1689FC;" d="M272,75v62c0,9.899-7.5,15-15,15V60C264.5,60,272,65.099,272,75z"/>
	<path style="fill:#1689FC;" d="M272,373.1v60c0,8.399-6.599,15-15,15v-90C265.401,358.1,272,364.699,272,373.1z"/>
</g>
<g>
	<path style="fill:#17ACE8;" d="M219.852,484.622L65.984,397.83c-17.204-9.936-2.118-35.908,15-25.986l153.868,86.792
		C251.97,468.522,237.039,494.55,219.852,484.622z"/>
	<path style="fill:#17ACE8;" d="M29,345.755v-177.51c0-19.773,30-19.854,30,0v177.51C59,365.528,29,365.609,29,345.755z"/>
	<path style="fill:#17ACE8;" d="M67.361,122.879l152.286-87.884c17.007-9.918,32.259,16.018,15,25.986L82.361,148.865
		C65.173,158.794,50.243,132.766,67.361,122.879z"/>
	<path style="fill:#17ACE8;" d="M71.316,376.092c-15.274,0-20.822-20.373-7.456-28.022l80.684-44.092
		c7.148-4.146,16.348-1.611,20.464,5.581s1.611,16.348-5.581,20.464l-80.684,44.092C76.399,375.462,73.835,376.092,71.316,376.092z"
		/>
	<path style="fill:#17ACE8;" d="M154.505,209.539c-2.52,0-5.083-0.63-7.427-1.978l-81.753-44.707
		c-17.294-9.897-2.183-35.852,14.883-26.045l81.753,44.707c7.192,4.116,9.697,13.271,5.581,20.464
		C164.773,206.829,159.705,209.539,154.505,209.539z"/>
</g>
<path style="fill:#1689FC;" d="M377,257c0,66.299-53.699,120-120,120s-120-53.701-120-120c0-66.301,53.699-120,120-120
	S377,190.699,377,257z"/>
<g>
	<path style="fill:#1DE8F1;" d="M257,0c-24.901,0-45,20.099-45,45c0,24.899,20.099,45,45,45s45-20.101,45-45
		C302,20.099,281.901,0,257,0z"/>
	<path style="fill:#1DE8F1;" d="M257,422c-24.901,0-45,20.099-45,45c0,24.899,20.099,45,45,45s45-20.101,45-45
		C302,442.099,281.901,422,257,422z"/>
</g>
<path style="fill:#1BD9DE;" d="M435.206,170.325c-17.549-17.549-17.549-46.084,0-63.633s46.084-17.549,63.633,0
	s17.549,46.084,0,63.633C481.289,187.875,452.755,187.875,435.206,170.325z"/>
<path style="fill:#1DE8F1;" d="M13.162,407.308c-17.549-17.549-17.549-46.084,0-63.633s46.084-17.549,63.633,0
	s17.549,46.084,0,63.633C59.245,424.857,30.711,424.857,13.162,407.308z"/>
<path style="fill:#1BD9DE;" d="M435.206,407.308c-17.549-17.549-17.549-46.084,0-63.633s46.084-17.549,63.633,0
	s17.549,46.084,0,63.633C481.289,424.857,452.755,424.857,435.206,407.308z"/>
<path style="fill:#1DE8F1;" d="M44.978,183.479c-11.528,0-23.042-4.38-31.816-13.154c-17.549-17.549-17.549-46.084,0-63.633
	s46.084-17.549,63.633,0s17.549,46.084,0,63.633C68.02,179.1,56.506,183.479,44.978,183.479z"/>
<g>
	<path style="fill:#1BD9DE;" d="M302,467c0,24.899-20.099,45-45,45v-90C281.901,422,302,442.099,302,467z"/>
	<path style="fill:#1BD9DE;" d="M257,90V0c24.901,0,45,20.099,45,45C302,69.899,281.901,90,257,90z"/>
</g>
<path style="fill:#136EF1;" d="M377,257c0,66.299-53.699,120-120,120V137C323.301,137,377,190.699,377,257z"/>
<path style="fill:#17ACE8;" d="M257,122c-74.399,0-135,60.599-135,135c0,74.399,60.601,135,135,135s135-60.601,135-135
	C392,182.599,331.399,122,257,122z M153.5,272h29.401c1.5,28.2,7.5,52.8,16.5,72.599C175.101,328.4,158,302.3,153.5,272z
	 M182.901,242H153.5c4.501-30.3,21.601-56.4,45.901-72.601C190.401,189.2,184.401,213.8,182.901,242z M242,354.8
	c-14.399-13.2-26.7-43.8-29.399-82.8H242V354.8z M242,242h-29.399c2.699-39,15-69.6,29.399-82.8V242z M360.5,242h-29.401
	c-1.5-28.2-7.5-52.8-16.5-72.601C338.899,185.6,356,211.7,360.5,242z M272,354.8V272h29.399C298.7,311,286.399,341.6,272,354.8z
	 M272,242v-82.8c14.399,13.2,26.7,43.801,29.399,82.8H272z M314.599,344.599c9-19.799,15-44.399,16.5-72.599H360.5
	C356,302.3,338.899,328.4,314.599,344.599z"/>
<path style="fill:#1689FC;" d="M257,122v270c74.399,0,135-60.601,135-135C392,182.599,331.399,122,257,122z M360.5,242h-29.401
	c-1.5-28.2-7.5-52.8-16.5-72.601C338.899,185.6,356,211.7,360.5,242z M272,354.8V272h29.399C298.7,311,286.399,341.6,272,354.8z
	 M272,242v-82.8c14.399,13.2,26.7,43.801,29.399,82.8H272z M314.599,344.599c9-19.799,15-44.399,16.5-72.599H360.5
	C356,302.3,338.899,328.4,314.599,344.599z"/>
<g>
</g>
<g>
</g>
<g>
</g>
<g>
</g>
<g>
</g>
<g>
</g>
<g>
</g>
<g>
</g>
<g>
</g>
<g>
</g>
<g>
</g>
<g>
</g>
<g>
</g>
<g>
</g>
<g>
</g>
</svg>
