<svg height="512" viewBox="0 0 96 96" width="512" xmlns="http://www.w3.org/2000/svg" xmlns:xlink="http://www.w3.org/1999/xlink"><linearGradient id="New_Gradient_Swatch_1" gradientUnits="userSpaceOnUse" x1="49.509" x2="74.336" y1="67.166" y2="42.339"><stop offset="0" stop-color="#34cdfa"/><stop offset="1" stop-color="#e8d9f1"/></linearGradient><g id="_10-delivered" data-name="10-delivered"><g id="Flat"><path d="m95.276 45.705a4 4 0 0 0 -3.276-1.705h-52a4 4 0 0 0 -3.759 2.633l-16 44a4 4 0 0 0 3.759 5.367h52a4 4 0 0 0 3.759-2.633l16-44a4 4 0 0 0 -.483-3.662z" fill="#e6f9fe"/><path d="m36 92a4 4 0 0 1 -3.759-5.367l15.503-42.633h-7.744a4 4 0 0 0 -3.759 2.633l-16 44a4 4 0 0 0 3.759 5.367h52a4 4 0 0 0 3.759-2.633l.5-1.367z" fill="#ccf2fe"/><path d="m55.692 44-7.406 18.515a4 4 0 0 0 3.714 5.485h12a4 4 0 0 0 3.714-2.515l8-20a3.985 3.985 0 0 0 .286-1.485z" fill="url(#New_Gradient_Swatch_1)"/><path d="m94.828 13.171-12-12-5.656 5.658 5.171 5.171h-18.343v8h18.343l-5.171 5.171 5.656 5.658 12-12a4 4 0 0 0 0-5.658z" fill="#99e6fd"/><path d="m62.828 25.171-12-12-5.656 5.658 5.171 5.171h-18.343v8h18.343l-5.171 5.171 5.656 5.658 12-12a4 4 0 0 0 0-5.658z" fill="#34cdfa"/><path d="m30.828 45.171-12-12-5.656 5.658 5.171 5.171h-18.343v8h18.343l-5.171 5.171 5.656 5.658 12-12a4 4 0 0 0 0-5.658z" fill="#99e6fd"/><path d="m0 24h20v8h-20z" fill="#34cdfa"/><path d="m12 12h28v8h-28z" fill="#99e6fd"/></g></g></svg>