<svg enable-background="new 0 0 318.964 318.964" viewBox="0 0 318.964 318.964" xmlns="http://www.w3.org/2000/svg"><path d="m303.673 253.517c-11.151-37.754-67.121-33.566-91.279-44.408-24.157-10.842-20.386-47.219-23.449-53.548h-58.932c-3.058 6.329.714 42.711-23.449 53.548-24.157 10.842-80.133 6.655-91.279 44.408-6.149 20.824-5.857 27.193-7.554 50.26 0 0 76.8 15.187 150.014 15.187s153.488-15.187 153.488-15.187c-1.703-23.073-1.411-29.435-7.56-50.26z" fill="#eae5dc"/><path d="m303.673 253.517c-11.151-37.754-67.121-33.566-91.279-44.408-24.157-10.842-20.386-47.219-23.449-53.548h-31.206s-.719 51.024 23.438 61.866 80.133 6.655 91.279 44.408c5.857 19.83 5.868 26.552 7.324 47.073 19.234-2.816 31.442-5.126 31.442-5.126-1.692-23.078-1.4-29.44-7.549-50.265z" fill="#e0dbd3"/><path d="m253.987 218.467-22.544-4.345s-4.794 43.374-6.278 101.373c7.953-.748 15.637-1.568 22.932-2.422 1.495-54.885 5.89-94.606 5.89-94.606z" fill="#4c4c4c"/><path d="m64.954 218.467s4.407 39.845 5.896 94.859c7.284.86 14.968 1.681 22.932 2.422-1.473-58.128-6.284-101.626-6.284-101.626z" fill="#4c4c4c"/><path d="m230.009 229.084c7.891 2.063 15.541 4.693 22.207 8.453 1.006-12.112 1.776-19.071 1.776-19.071l-22.544-4.345c-.005.001-.601 5.414-1.439 14.963z" fill="#393c3d"/><path d="m201.878 201.105c-12.5-14.951-10.421-40.356-12.927-45.549h-58.938c-2.512 5.193-.427 30.599-12.927 45.549 7.655 9.611 23.764 16.232 42.396 16.232s34.741-6.621 42.396-16.232z" fill="#dbb491"/><g fill="#c6c5af"><path d="m209.157 207.406-33.049 28.716-4.935-30.374z"/><path d="m109.234 207.743 33.583 28.379 3.979-30.605z"/><path d="m172.005 205.517h-25.209l-1.911 6.183 29.076.169z"/></g><path d="m146.796 205.517-1.911 6.183 1.102.719z" fill="#aaa88f"/><path d="m173.961 211.869-2.788-6.121 1.158 7.11z" fill="#aaa88f"/><path d="m173.432 318.739.579-7.987-6.081-80.51h-16.024l-7.099 80.515.585 8.066c4.12.084 8.24.141 12.354.141 5.204 0 10.442-.085 15.686-.225z" fill="#4c4c4c"/><path d="m151.967 230.596 15.963-.359.326 4.496z" fill="#3a3a38"/><path d="m140.54 208.181 37.715-.022-2.147 12.871-8.516 9.566h-15.625l-9.274-9.566z" fill="#4c4c4c"/><path d="m146.796 205.517-25.72-13.984s-3.389 4.817-11.843 16.21l31.723 22.853 2.704-14.923z" fill="#eaeae1"/><path d="m171.122 205.517 25.72-13.984s3.861 4.48 12.315 15.873l-32.195 23.191-2.704-14.923z" fill="#eaeae1"/><path d="m196.842 191.533-25.72 13.984 1.776 5.772c2.372 2.602 5.109 4.716 8.279 6.138 2.799 1.253 6.02 2.31 9.555 3.249l18.419-13.265c-8.448-11.398-12.309-15.878-12.309-15.878z" fill="#e0dbd3"/><ellipse cx="228.522" cy="118.556" fill="#cca483" rx="21.386" ry="11.629" transform="matrix(-.177 .9842 -.9842 -.177 385.6545 -85.3725)"/><ellipse cx="90.264" cy="118.564" fill="#dbb491" rx="11.629" ry="21.386" transform="matrix(-.9842 .177 -.177 -.9842 200.0894 219.2784)"/><path d="m223.641 47.364h-64.221-64.187s-35.989 146.614 64.187 160.806c100.216-14.192 64.221-160.806 64.221-160.806z" fill="#dbb491"/><path d="m159.42 208.17c100.216-14.192 64.221-160.806 64.221-160.806h-15.024c4.114 61.242 9.808 93.774-13.815 129.24-18.717 28.104-35.382 31.566-35.382 31.566z" fill="#cca483"/><path d="m192.666 55.233-93.297 23.708s8.335 17.042 48.112 22.724c53.053 7.577 78.031-1.523 78.031-1.523z" fill="#cca483"/><path d="m233.893 90.3-7.273 49.366h-5.227c1.557-15.507 1.754-31.037.275-46.595z" fill="#393c3d"/><path d="m153.406.354c-27.822-2.67-65.469 9.616-63.457 42.396 0 0-4.474-1.894-13.22 5.48-7.127 6.008-8.577 22.106 1.489 40.749 4.339 8.032 11.196 20.583 14.04 50.726h6.087c-2.49-21.15-3.946-41.165 1.029-60.77 0 0 20.026 20.521 78.194 20.712s72.197-7.127 74.715-38.771c1.71-21.515-16.271-52.586-98.877-60.522z" fill="#515151"/></svg>